<svg xmlns="http://www.w3.org/2000/svg" viewBox="0 0 1720 883"><path d="M1618.8 0H304.7L142.6 93.5c-4 2.3-5.4 7.5-3.1 11.5.7 1.3 1.8 2.4 3.1 3.1l1012.5 581.8c5.2 3 11.6 3 16.9 0l15-8.7c5.2-3 11.6-3 16.9 0l345.4 199.5c5.2 3 11.6 3 16.9 0l52.8-30.5 69.6-40.2c9.6-5.5 20.5-8.5 31.6-8.4V0h-101.4z" fill="#f5f6f7"/><linearGradient id="a" gradientUnits="userSpaceOnUse" x1="244.9707" y1="626.5327" x2="591.3694" y2="826.5378" gradientTransform="matrix(1 0 0 -1 0 838)"><stop offset="0" stop-color="#ff6f00"/><stop offset="1" stop-color="#ff9100"/></linearGradient><path d="M896.4 57.4L995.7 0H0v696c11.1 0 22-2.9 31.6-8.4l69.6-40.2 883.2-509.9c4-2.3 5.4-7.5 3.1-11.5-.7-1.3-1.8-2.3-3.1-3.1l-88-50.8c-4-2.3-5.4-7.5-3.1-11.5.7-1.4 1.8-2.5 3.1-3.2z" fill="url(#a)"/></svg>